<svg width="920" height="795" viewBox="0 0 920 795" fill="none" xmlns="http://www.w3.org/2000/svg">
<path opacity="0.5" d="M83.9949 543.207C83.9949 548.692 79.5486 553.138 74.0638 553.138C68.5791 553.138 64.1328 548.692 64.1328 543.207C64.1328 537.722 68.5791 533.276 74.0638 533.276C79.5486 533.276 83.9949 537.722 83.9949 543.207Z" fill="#3A449C"/>
<path opacity="0.2" d="M782.478 349C782.478 508.058 653.536 637 494.478 637C335.42 637 206.478 508.058 206.478 349C206.478 189.942 335.42 61 494.478 61C653.536 61 782.478 189.942 782.478 349Z" fill="url(#paint0_linear)"/>
<path opacity="0.5" fill-rule="evenodd" clip-rule="evenodd" d="M771.859 406.782C732.508 461.858 675.607 516.631 606.149 512.987C539.807 509.507 495.44 474.423 452.104 440.155C450.263 438.698 448.423 437.243 446.583 435.792C401.395 400.151 356.329 366.852 287.228 371.171C218.103 375.491 165.319 418.517 129.732 460.676C111.953 481.739 98.5097 502.537 89.5113 518.07C85.0129 525.835 81.6277 532.281 79.3688 536.781C78.2394 539.031 77.3918 540.794 76.8276 541.993C76.5454 542.592 76.3342 543.05 76.194 543.357C76.1239 543.51 76.0716 543.626 76.0371 543.703L75.9986 543.789L75.9873 543.814C75.987 543.815 75.9869 543.815 74.6156 543.207C73.2444 542.599 73.2449 542.598 73.2456 542.596L73.2594 542.565L73.3012 542.472C73.338 542.39 73.3926 542.269 73.4651 542.111C73.61 541.794 73.8261 541.325 74.1133 540.715C74.6877 539.495 75.5463 537.709 76.6876 535.435C78.9701 530.888 82.3837 524.389 86.9154 516.566C95.9773 500.923 109.519 479.972 127.44 458.741C163.254 416.312 216.729 372.571 287.04 368.177C357.376 363.781 403.246 397.791 448.441 433.436C450.23 434.848 452.019 436.262 453.808 437.676C497.258 472.028 540.938 506.562 606.306 509.991C674.069 513.546 730.12 460.04 769.418 405.038C789.021 377.6 804.356 349.928 814.791 329.108C820.008 318.701 823.997 310.011 826.682 303.926C828.024 300.884 829.04 298.493 829.719 296.865C830.059 296.051 830.314 295.427 830.485 295.008C830.57 294.798 830.634 294.64 830.676 294.535L830.735 294.387L830.738 294.38C830.738 294.379 830.738 294.378 832.133 294.931C833.527 295.484 833.527 295.485 833.526 295.487L833.523 295.496L833.51 295.528L833.46 295.652C833.416 295.761 833.351 295.924 833.264 296.138C833.09 296.565 832.831 297.197 832.488 298.02C831.801 299.666 830.777 302.075 829.427 305.137C826.725 311.261 822.714 319.996 817.473 330.453C806.992 351.363 791.579 379.18 771.859 406.782Z" fill="#3A449C"/>
<path opacity="0.5" d="M309.098 132.724C309.098 135.771 306.628 138.242 303.581 138.242C300.534 138.242 298.064 135.771 298.064 132.724C298.064 129.677 300.534 127.207 303.581 127.207C306.628 127.207 309.098 129.677 309.098 132.724Z" fill="#1A88C9"/>
<path opacity="0.5" d="M839.857 295.483C839.857 300.054 836.152 303.759 831.581 303.759C827.01 303.759 823.305 300.054 823.305 295.483C823.305 290.912 827.01 287.207 831.581 287.207C836.152 287.207 839.857 290.912 839.857 295.483Z" fill="#3A449C"/>
<path opacity="0.3" fill-rule="evenodd" clip-rule="evenodd" d="M302.082 132.77C302.082 132.769 302.082 132.769 303.581 132.724C305.08 132.68 305.08 132.68 305.08 132.679L305.081 132.684L305.081 132.701L305.084 132.775C305.086 132.841 305.09 132.942 305.097 133.076C305.109 133.342 305.13 133.738 305.163 134.249C305.23 135.271 305.346 136.748 305.546 138.561C305.946 142.19 306.678 147.144 308.002 152.457C310.677 163.187 315.663 174.939 324.781 180.55C329.315 183.34 334.729 184.52 340.807 184.948C345.538 185.282 350.552 185.156 355.782 185.026C357.298 184.988 358.832 184.95 360.382 184.922C374.042 184.678 388.746 185.257 401.063 194.996C407.273 199.906 411.63 207.183 415.808 215.535C417.205 218.326 418.58 221.233 419.998 224.232C422.872 230.308 425.926 236.764 429.703 243.411C440.894 263.101 458.226 284.021 494.704 298.287C512.809 305.367 538.936 306.742 568.133 304.718C597.28 302.698 629.287 297.308 659.029 291.009C688.766 284.712 716.207 277.514 736.215 271.889C746.219 269.077 754.362 266.659 760.004 264.945C762.824 264.087 765.019 263.406 766.508 262.939C767.253 262.706 767.82 262.526 768.202 262.405C768.393 262.344 768.537 262.298 768.633 262.267L768.774 262.222C768.776 262.222 768.776 262.221 769.236 263.649C769.696 265.077 769.695 265.077 769.694 265.078L769.686 265.08L769.547 265.125C769.449 265.156 769.303 265.203 769.111 265.264C768.726 265.386 768.154 265.567 767.406 265.802C765.909 266.271 763.706 266.955 760.876 267.815C755.217 269.535 747.053 271.959 737.027 274.777C716.977 280.414 689.469 287.629 659.651 293.944C629.838 300.258 597.681 305.677 568.341 307.711C539.05 309.741 512.364 308.414 493.612 301.08C456.377 286.519 438.558 265.063 427.095 244.893C423.265 238.154 420.12 231.506 417.218 225.373C415.813 222.404 414.466 219.556 413.125 216.877C408.968 208.567 404.855 201.818 399.202 197.349C387.795 188.329 374.086 187.678 360.435 187.922C358.94 187.948 357.443 187.986 355.949 188.023C350.693 188.155 345.484 188.285 340.596 187.941C334.295 187.496 328.33 186.257 323.209 183.105C313.017 176.833 307.796 164.034 305.091 153.183C303.726 147.705 302.975 142.612 302.564 138.89C302.359 137.028 302.239 135.505 302.169 134.444C302.135 133.914 302.113 133.499 302.1 133.215C302.093 133.073 302.089 132.963 302.086 132.888L302.083 132.802L302.082 132.778L302.082 132.77Z" fill="#1A88C9"/>
<path d="M259.443 610.517C259.443 625.143 247.586 637 232.96 637C218.334 637 206.478 625.143 206.478 610.517C206.478 595.891 218.334 584.034 232.96 584.034C247.586 584.034 259.443 595.891 259.443 610.517Z" fill="#2E1C8D" fill-opacity="0.1"/>
<path opacity="0.1" d="M704.133 83.0689C704.133 89.1631 699.193 94.1034 693.098 94.1034C687.004 94.1034 682.064 89.1631 682.064 83.0689C682.064 76.9747 687.004 72.0344 693.098 72.0344C699.193 72.0344 704.133 76.9747 704.133 83.0689Z" fill="#1A88C9"/>
<g opacity="0.9" filter="url(#filter0_d)">
<path d="M180.133 260C180.133 243.431 193.564 230 210.133 230H377.133C393.701 230 407.133 243.431 407.133 260V433C407.133 449.569 393.701 463 377.133 463H210.133C193.564 463 180.133 449.569 180.133 433V260Z" fill="white"/>
</g>
<path d="M218.658 279.917C216.978 279.877 215.499 279.317 214.299 278.117C209.86 273.637 205.381 269.197 200.902 264.717C197.583 261.397 198.902 255.797 203.381 254.397C205.741 253.677 207.9 254.197 209.66 255.957C214.099 260.357 218.458 264.757 222.857 269.157C224.057 270.357 224.737 271.797 224.817 273.517C224.937 276.357 222.897 279.037 220.098 279.677C219.658 279.797 219.138 279.837 218.658 279.917Z" fill="#DA1A5E"/>
<path d="M231.06 254.083C234.46 254.083 237.219 256.803 237.219 260.243C237.219 263.683 234.5 266.443 231.06 266.483C227.661 266.523 224.862 263.683 224.822 260.283C224.862 256.843 227.621 254.083 231.06 254.083Z" fill="#DA1A5E"/>
<path d="M254.62 277H259.292L265.424 258.681H261.171L256.994 273.077H256.918L252.729 258.681H248.488L254.62 277Z" fill="#4F4F4F"/>
<path d="M271.403 277.279C275.288 277.279 277.167 274.981 277.586 272.976L277.624 272.836H274.222L274.196 272.912C273.93 273.674 273.003 274.512 271.479 274.512C269.588 274.512 268.407 273.242 268.369 271.071H277.738V269.929C277.738 265.815 275.237 263.111 271.251 263.111C267.265 263.111 264.713 265.879 264.713 270.208V270.221C264.713 274.575 267.239 277.279 271.403 277.279ZM271.314 265.879C272.851 265.879 273.955 266.856 274.184 268.735H268.407C268.648 266.895 269.791 265.879 271.314 265.879Z" fill="#4F4F4F"/>
<path d="M279.744 277H283.451V258.681H279.744V277Z" fill="#4F4F4F"/>
<path d="M292.198 277.279C296.312 277.279 298.939 274.639 298.939 270.195V270.17C298.939 265.765 296.261 263.111 292.186 263.111C288.123 263.111 285.457 265.79 285.457 270.17V270.195C285.457 274.626 288.06 277.279 292.198 277.279ZM292.211 274.372C290.383 274.372 289.228 272.861 289.228 270.195V270.17C289.228 267.542 290.396 266.019 292.186 266.019C293.988 266.019 295.169 267.542 295.169 270.17V270.195C295.169 272.849 294.014 274.372 292.211 274.372Z" fill="#4F4F4F"/>
<path d="M361.133 262C361.133 256.477 365.61 252 371.133 252H381.133C386.656 252 391.133 256.477 391.133 262V272C391.133 277.523 386.656 282 381.133 282H371.133C365.61 282 361.133 277.523 361.133 272V262Z" fill="#03A66D" fill-opacity="0.1"/>
<path d="M376.325 262.66L382.539 270.118C382.974 270.639 382.603 271.43 381.925 271.43L370.341 271.43C369.663 271.43 369.292 270.639 369.726 270.118L375.941 262.66C376.041 262.54 376.225 262.54 376.325 262.66Z" fill="#03A66D"/>
<path d="M287.453 414.164C289.641 414.164 291.179 412.995 291.179 411.327V411.313C291.179 410.069 290.29 409.085 289.005 408.805V408.771C290.105 408.456 290.823 407.636 290.823 406.59V406.576C290.823 405.072 289.415 403.972 287.453 403.972C285.491 403.972 284.09 405.072 284.09 406.576V406.59C284.09 407.636 284.808 408.456 285.908 408.771V408.805C284.623 409.085 283.728 410.069 283.728 411.313V411.327C283.728 412.995 285.272 414.164 287.453 414.164ZM287.453 408.258C286.359 408.258 285.607 407.622 285.607 406.727V406.713C285.607 405.811 286.359 405.182 287.453 405.182C288.547 405.182 289.306 405.811 289.306 406.713V406.727C289.306 407.622 288.554 408.258 287.453 408.258ZM287.453 412.94C286.195 412.94 285.3 412.223 285.3 411.225V411.211C285.3 410.206 286.188 409.481 287.453 409.481C288.718 409.481 289.606 410.206 289.606 411.211V411.225C289.606 412.223 288.711 412.94 287.453 412.94Z" fill="#4F4F4F"/>
<path d="M293.168 414.103C293.667 414.103 294.063 413.706 294.063 413.207C294.063 412.701 293.667 412.312 293.168 412.312C292.662 412.312 292.266 412.701 292.266 413.207C292.266 413.706 292.662 414.103 293.168 414.103Z" fill="#4F4F4F"/>
<path d="M299.026 414.164C301.378 414.164 302.793 412.202 302.793 409.071V409.058C302.793 405.927 301.378 403.972 299.026 403.972C296.668 403.972 295.26 405.927 295.26 409.058V409.071C295.26 412.202 296.668 414.164 299.026 414.164ZM299.026 412.886C297.618 412.886 296.805 411.437 296.805 409.071V409.058C296.805 406.692 297.618 405.257 299.026 405.257C300.428 405.257 301.248 406.692 301.248 409.058V409.071C301.248 411.437 300.428 412.886 299.026 412.886Z" fill="#4F4F4F"/>
<path d="M304.051 414H310.798V412.708H306.102V412.646L308.344 410.445C310.114 408.695 310.641 407.896 310.641 406.768V406.754C310.641 405.161 309.287 403.972 307.394 403.972C305.466 403.972 303.969 405.25 303.969 407.014V407.055H305.418V407.014C305.432 406.016 306.259 405.236 307.414 405.236C308.412 405.236 309.123 405.906 309.13 406.843V406.856C309.13 407.622 308.836 408.142 307.523 409.454L304.051 412.947V414Z" fill="#4F4F4F"/>
<path d="M316.943 409.078C318.249 409.078 319.042 408.114 319.042 406.562V406.556C319.042 405.018 318.249 404.054 316.943 404.054C315.638 404.054 314.838 405.018 314.838 406.556V406.562C314.838 408.114 315.638 409.078 316.943 409.078ZM317.593 414L323.882 404.136H322.624L316.328 414H317.593ZM316.943 408.148C316.321 408.148 315.966 407.567 315.966 406.569V406.562C315.966 405.558 316.321 404.983 316.943 404.983C317.565 404.983 317.921 405.558 317.921 406.562V406.569C317.921 407.567 317.565 408.148 316.943 408.148ZM323.26 414.082C324.565 414.082 325.358 413.118 325.358 411.573V411.566C325.358 410.021 324.565 409.058 323.26 409.058C321.954 409.058 321.161 410.021 321.161 411.566V411.573C321.161 413.118 321.954 414.082 323.26 414.082ZM323.26 413.152C322.638 413.152 322.282 412.571 322.282 411.573V411.566C322.282 410.562 322.638 409.994 323.26 409.994C323.882 409.994 324.237 410.562 324.237 411.566V411.573C324.237 412.571 323.882 413.152 323.26 413.152Z" fill="#4F4F4F"/>
<path d="M271.323 405.654L276.001 411.112C276.446 411.631 276.077 412.433 275.394 412.433L266.872 412.433C266.189 412.433 265.82 411.631 266.265 411.112L270.943 405.654C271.043 405.538 271.223 405.538 271.323 405.654Z" fill="#03A66D"/>
<path fill-rule="evenodd" clip-rule="evenodd" d="M268.429 373.017C267.796 373.632 267.011 374.037 266.089 373.997C263.188 373.871 261.453 371.665 260.376 369.019C259.29 366.355 258.716 362.9 258.291 359.575C258.15 358.475 258.026 357.393 257.907 356.349C257.657 354.175 257.427 352.169 257.107 350.52C256.871 349.301 256.603 348.387 256.295 347.798C255.981 347.199 255.775 347.199 255.733 347.199C254.967 347.199 254.414 347.562 253.889 348.327C253.34 349.126 252.927 350.214 252.45 351.47L252.418 351.554C251.953 352.777 251.421 354.163 250.63 355.231C249.801 356.352 248.629 357.199 246.933 357.199C245.894 357.199 245.081 356.654 244.475 355.931C243.882 355.223 243.42 354.272 243.039 353.239C242.275 351.169 241.723 348.448 241.202 345.845L241.162 345.642C240.646 343.062 240.157 340.614 239.521 338.813C239.194 337.885 238.858 337.221 238.522 336.815C238.204 336.431 237.983 336.382 237.816 336.396C237.701 336.405 237.414 336.508 237.008 337.172C236.619 337.808 236.248 338.758 235.894 339.983C235.236 342.258 234.701 345.229 234.142 348.33C234.101 348.562 234.059 348.794 234.017 349.026C233.42 352.336 232.784 355.743 231.935 358.375C231.511 359.688 231.013 360.875 230.401 361.778C229.795 362.672 228.976 363.431 227.874 363.588C226.11 363.841 224.846 363.211 223.831 362.279C223.347 361.833 222.913 361.316 222.51 360.813C222.406 360.684 222.304 360.556 222.203 360.429C221.899 360.047 221.605 359.677 221.281 359.308C220.438 358.348 219.502 357.528 218.184 357.076C216.864 356.624 215.044 356.502 212.375 357.169L211.89 355.229C214.822 354.496 217.052 354.574 218.832 355.184C220.614 355.795 221.827 356.899 222.784 357.989C223.143 358.397 223.48 358.822 223.79 359.211C223.886 359.331 223.978 359.448 224.069 359.56C224.465 360.053 224.819 360.47 225.185 360.806C225.87 361.436 226.556 361.756 227.591 361.609C227.89 361.566 228.283 361.338 228.746 360.655C229.202 359.982 229.63 359.003 230.031 357.76C230.832 355.28 231.446 352.011 232.049 348.671C232.093 348.429 232.136 348.185 232.18 347.942C232.731 344.879 233.284 341.807 233.972 339.427C234.343 338.147 234.772 336.993 235.302 336.128C235.814 335.29 236.565 334.493 237.65 334.403C238.683 334.317 239.486 334.843 240.064 335.541C240.623 336.218 241.053 337.144 241.407 338.148C242.091 340.087 242.605 342.657 243.105 345.162C243.125 345.259 243.144 345.356 243.163 345.453C243.693 348.1 244.216 350.653 244.915 352.546C245.265 353.494 245.631 354.196 246.008 354.646C246.372 355.081 246.671 355.199 246.933 355.199C247.837 355.199 248.465 354.795 249.023 354.041C249.62 353.234 250.063 352.121 250.548 350.844C250.572 350.78 250.597 350.715 250.621 350.651C251.061 349.49 251.551 348.198 252.24 347.195C253.002 346.086 254.099 345.199 255.733 345.199C256.892 345.199 257.623 346.025 258.066 346.87C258.516 347.727 258.826 348.878 259.071 350.14C259.406 351.865 259.651 354.003 259.906 356.225C260.024 357.25 260.143 358.293 260.275 359.322C260.7 362.647 261.251 365.867 262.228 368.265C263.212 370.682 264.477 371.925 266.176 371.999C266.405 372.009 266.682 371.927 267.034 371.584C267.402 371.226 267.793 370.636 268.188 369.775C268.975 368.056 269.661 365.513 270.263 362.355C271.465 356.057 272.286 347.595 273.037 339.061C273.151 337.764 273.264 336.464 273.376 335.17C273.998 327.989 274.603 320.998 275.38 315.54C275.838 312.326 276.363 309.583 277.006 307.626C277.326 306.654 277.696 305.806 278.145 305.183C278.587 304.57 279.239 304 280.133 304C281.487 304 282.542 304.95 283.337 306.078C284.157 307.241 284.886 308.849 285.544 310.695C286.864 314.401 287.988 319.326 288.964 324.255C289.533 327.13 290.062 330.061 290.549 332.765C290.894 334.674 291.218 336.471 291.521 338.055C291.893 339.992 292.236 341.627 292.556 342.832C292.717 343.436 292.866 343.907 293.001 344.243C293.124 344.549 293.198 344.645 293.194 344.648C293.194 344.648 293.194 344.648 293.193 344.647C293.698 345.064 294.107 345.269 294.445 345.38C294.794 345.495 295.114 345.527 295.495 345.551C295.534 345.553 295.575 345.556 295.617 345.558C295.959 345.578 296.408 345.604 296.856 345.731C297.402 345.885 297.925 346.176 298.44 346.692C298.804 347.055 299.039 347.578 299.211 348.043C299.395 348.54 299.562 349.132 299.725 349.75C299.792 350.005 299.86 350.267 299.928 350.533C300.2 351.589 300.491 352.719 300.877 353.818C301.36 355.196 301.954 356.402 302.736 357.231C303.481 358.022 304.401 358.48 305.671 358.401C305.988 358.381 306.366 358.185 306.779 357.44C307.196 356.69 307.538 355.565 307.813 354.107C308.329 351.371 308.556 347.787 308.791 344.076C308.806 343.846 308.82 343.616 308.835 343.385C309.084 339.482 309.362 335.484 310.045 332.46C310.386 330.953 310.847 329.591 311.519 328.585C312.21 327.551 313.197 326.799 314.533 326.799C316.737 326.799 318.178 327.881 319.143 329.384C320.058 330.809 320.581 332.665 321.046 334.33L321.062 334.389C321.544 336.111 321.97 337.638 322.646 338.758C322.976 339.306 323.339 339.707 323.753 339.974C324.157 340.234 324.66 340.399 325.333 340.399C325.857 340.399 326.346 340.183 326.849 339.68C327.37 339.157 327.865 338.361 328.34 337.307C329.263 335.257 329.988 332.521 330.745 329.661L330.816 329.393C331.584 326.494 332.395 323.48 333.489 321.22C334.552 319.023 336.12 317.064 338.588 317.201C339.847 317.271 340.871 317.956 341.695 318.888C342.512 319.813 343.205 321.06 343.822 322.45C344.851 324.771 345.753 327.699 346.656 330.632C346.833 331.206 347.01 331.781 347.188 332.351C348.292 335.889 349.437 339.269 350.87 341.712C352.319 344.181 353.852 345.352 355.65 345.202C357.638 345.037 359.887 343.455 362.222 340.823C364.517 338.236 366.727 334.831 368.662 331.407C370.593 327.991 372.23 324.595 373.385 322.049C373.962 320.777 374.418 319.72 374.729 318.982C374.884 318.613 375.003 318.323 375.084 318.127C375.124 318.029 375.154 317.954 375.174 317.904L375.196 317.848L375.203 317.831L376.133 318.2C377.062 318.569 377.062 318.569 377.062 318.569L377.062 318.57L377.06 318.575L377.054 318.591L377.029 318.651C377.008 318.704 376.976 318.782 376.935 318.883C376.852 319.086 376.73 319.382 376.572 319.758C376.255 320.511 375.792 321.585 375.206 322.875C374.036 325.454 372.373 328.908 370.403 332.391C368.439 335.868 366.148 339.412 363.718 342.15C361.329 344.843 358.628 346.961 355.816 347.195C352.814 347.446 350.697 345.367 349.145 342.724C347.579 340.054 346.374 336.459 345.278 332.947C345.094 332.356 344.912 331.767 344.733 331.184C343.828 328.249 342.97 325.462 341.994 323.261C341.41 321.946 340.816 320.914 340.196 320.213C339.583 319.518 339.019 319.228 338.477 319.198C337.346 319.135 336.313 319.976 335.289 322.092C334.296 324.144 333.531 326.954 332.75 329.905C332.718 330.024 332.687 330.143 332.655 330.262C331.918 333.046 331.156 335.924 330.163 338.129C329.644 339.281 329.03 340.325 328.265 341.092C327.482 341.877 326.509 342.399 325.333 342.399C324.305 342.399 323.421 342.139 322.67 341.655C321.93 341.178 321.371 340.518 320.933 339.79C320.114 338.432 319.624 336.674 319.177 335.075C319.158 335.006 319.139 334.937 319.12 334.868C318.635 333.133 318.182 331.589 317.46 330.465C316.788 329.418 315.928 328.799 314.533 328.799C314.069 328.799 313.631 329.023 313.182 329.696C312.713 330.398 312.318 331.477 311.996 332.901C311.354 335.739 311.082 339.566 310.831 343.513C310.815 343.759 310.8 344.006 310.784 344.253C310.553 347.912 310.318 351.614 309.778 354.478C309.491 356.002 309.101 357.379 308.527 358.412C307.95 359.45 307.078 360.316 305.795 360.397C303.865 360.517 302.385 359.775 301.28 358.603C300.212 357.47 299.506 355.951 298.989 354.48C298.573 353.292 298.254 352.055 297.981 350.994C297.916 350.738 297.852 350.493 297.791 350.26C297.629 349.647 297.483 349.136 297.336 348.737C297.177 348.308 297.062 348.142 297.026 348.106C296.741 347.821 296.514 347.713 296.31 347.655C296.085 347.591 295.86 347.577 295.482 347.554C295.446 347.552 295.409 347.549 295.371 347.547C294.952 347.521 294.422 347.478 293.82 347.28C293.213 347.08 292.579 346.739 291.893 346.167C291.531 345.865 291.302 345.379 291.145 344.988C290.966 344.543 290.793 343.983 290.624 343.346C290.283 342.068 289.929 340.375 289.557 338.431C289.243 336.79 288.916 334.981 288.572 333.07C288.09 330.398 287.573 327.527 287.002 324.644C286.028 319.723 284.927 314.923 283.66 311.367C283.024 309.582 282.368 308.174 281.702 307.23C281.012 306.25 280.479 306 280.133 306C280.133 306 280.131 306 280.127 306.001C280.121 306.003 280.102 306.01 280.072 306.031C280.006 306.074 279.901 306.167 279.767 306.353C279.494 306.731 279.201 307.353 278.906 308.25C278.321 310.032 277.815 312.63 277.36 315.822C276.592 321.22 275.992 328.144 275.369 335.33C275.257 336.626 275.144 337.931 275.029 339.237C274.28 347.753 273.451 356.316 272.228 362.73C271.618 365.928 270.897 368.663 270.006 370.608C269.562 371.578 269.046 372.417 268.429 373.017Z" fill="#03A66D"/>
<path fill-rule="evenodd" clip-rule="evenodd" d="M389.133 439L199.133 439L199.133 438L389.133 438L389.133 439Z" fill="#E0E0E0"/>
<path d="M294.633 433L300.133 438.5L294.633 444L289.133 438.5L294.633 433Z" fill="#C4C4C4"/>
<g opacity="0.9" filter="url(#filter1_d)">
<path d="M437.098 190.241C437.098 173.673 450.53 160.241 467.098 160.241H752.478C769.046 160.241 782.478 173.673 782.478 190.241V524.172C782.478 540.741 769.046 554.172 752.478 554.172H467.098C450.53 554.172 437.098 540.741 437.098 524.172V190.241Z" fill="white"/>
</g>
<path d="M479.098 223.124H480.562V220.678C484.811 220.443 487.813 218.261 487.813 214.555V214.525C487.813 211.347 485.792 209.677 481.72 208.812L480.562 208.578V203.495C482.306 203.7 483.375 204.579 483.595 206.029L483.624 206.161H487.535L487.506 205.912C487.213 202.528 484.62 200.448 480.562 200.199V197.738H479.098V200.185C474.923 200.39 472.096 202.689 472.096 206.117V206.146C472.096 209.252 474.088 211.068 477.999 211.889L479.098 212.123V217.367C476.974 217.177 475.978 216.21 475.729 214.862L475.699 214.701H471.788L471.803 214.921C472.037 218.378 474.894 220.458 479.098 220.678V223.124ZM476.183 205.824V205.795C476.183 204.623 477.164 203.656 479.098 203.48V208.271C476.988 207.802 476.183 207.011 476.183 205.824ZM483.727 214.936V214.965C483.727 216.283 482.76 217.235 480.562 217.396V212.431C482.994 212.958 483.727 213.676 483.727 214.936Z" fill="#4F4F4F"/>
<path d="M502.286 221H506.666V199.862H502.271L496.808 203.656V207.582L502.198 203.92H502.286V221Z" fill="#4F4F4F"/>
<path d="M511.412 221H526.778V217.484H517.198V217.309L521.622 213.266C525.27 209.911 526.485 208.241 526.485 205.678V205.648C526.485 202.045 523.409 199.496 518.941 199.496C514.474 199.496 511.163 202.294 511.163 206.278V206.396H515.265L515.279 206.264C515.338 204.359 516.803 202.938 518.971 202.938C520.846 202.938 522.164 204.169 522.179 205.897V205.927C522.179 207.392 521.607 208.432 518.883 210.98L511.412 217.968V221Z" fill="#4F4F4F"/>
<path d="M537.633 221.366C542.467 221.366 545.807 218.363 545.807 213.939V213.91C545.807 209.926 542.906 207.04 538.893 207.04C536.754 207.04 535.011 207.904 534.132 209.325H534.044L534.557 203.378H544.532V199.862H531.041L530.074 212.27H533.927C534.176 211.83 534.513 211.42 534.938 211.098C535.655 210.526 536.578 210.204 537.662 210.204C539.947 210.204 541.573 211.771 541.588 213.998V214.027C541.588 216.283 539.962 217.865 537.647 217.865C535.611 217.865 534.132 216.635 533.824 215.038L533.795 214.936H529.708L529.723 215.155C529.986 218.686 533.033 221.366 537.633 221.366Z" fill="#4F4F4F"/>
<path d="M550.245 221.249C551.563 221.249 552.618 220.194 552.618 218.876C552.618 217.543 551.563 216.503 550.245 216.503C548.912 216.503 547.872 217.543 547.872 218.876C547.872 220.194 548.912 221.249 550.245 221.249Z" fill="#4F4F4F"/>
<path d="M565.729 221H569.933V217.118H572.716V213.588H569.933V199.862H563.692L555.211 213.427V217.118H565.729V221ZM559.063 213.705V213.588L565.714 203.056H565.816V213.705H559.063Z" fill="#4F4F4F"/>
<path d="M583.189 221.366C588.023 221.366 591.363 218.363 591.363 213.939V213.91C591.363 209.926 588.463 207.04 584.449 207.04C582.311 207.04 580.567 207.904 579.688 209.325H579.601L580.113 203.378H590.089V199.862H576.598L575.631 212.27H579.483C579.732 211.83 580.069 211.42 580.494 211.098C581.212 210.526 582.135 210.204 583.219 210.204C585.504 210.204 587.13 211.771 587.145 213.998V214.027C587.145 216.283 585.519 217.865 583.204 217.865C581.168 217.865 579.688 216.635 579.381 215.038L579.352 214.936H575.265L575.279 215.155C575.543 218.686 578.59 221.366 583.189 221.366Z" fill="#4F4F4F"/>
<path d="M547.812 516H549.789V504.727H547.797L544.852 506.797V508.648L547.766 506.648H547.812V516Z" fill="#828282"/>
<path d="M552.562 516H554.578V511.109H560.062V516H562.07V504.727H560.062V509.414H554.578V504.727H552.562V516Z" fill="#828282"/>
<path d="M609.336 516H611.258V513.836H612.789V512.18H611.258V504.727H608.391L603.711 512.117V513.836H609.336V516ZM605.523 512.227V512.172L609.32 506.25H609.367V512.227H605.523Z" fill="#828282"/>
<path d="M614.234 516H616.25V511.109H621.734V516H623.742V504.727H621.734V509.414H616.25V504.727H614.234V516Z" fill="#828282"/>
<path d="M668.812 516H670.789V504.727H668.797L665.852 506.797V508.648L668.766 506.648H668.812V516Z" fill="#828282"/>
<path d="M673.562 516H677.68C681.055 516 683.039 513.906 683.039 510.336V510.32C683.039 506.758 681.039 504.727 677.68 504.727H673.562V516ZM675.578 514.297V506.43H677.469C679.711 506.43 680.984 507.812 680.984 510.328V510.344C680.984 512.914 679.734 514.297 677.469 514.297H675.578Z" fill="#828282"/>
<path d="M727.812 516H729.789V504.727H727.797L724.852 506.797V508.648L727.766 506.648H727.812V516Z" fill="#828282"/>
<path d="M734.852 516H736.797L739.07 507.914H739.117L741.391 516H743.336L746.359 504.727H744.266L742.305 513.234H742.266L740.008 504.727H738.18L735.922 513.234H735.883L733.922 504.727H731.828L734.852 516Z" fill="#828282"/>
<path opacity="0.4" d="M468.133 503C468.133 497.477 472.61 493 478.133 493H500.133C505.656 493 510.133 497.477 510.133 503V518C510.133 523.523 505.656 528 500.133 528H478.133C472.61 528 468.133 523.523 468.133 518V503Z" fill="#1A88C9"/>
<path d="M476.812 516H478.789V504.727H476.797L473.852 506.797V508.648L476.766 506.648H476.812V516Z" fill="white"/>
<path d="M485.602 516.195C488.094 516.195 489.836 514.602 489.836 512.281V512.266C489.836 510.125 488.289 508.57 486.141 508.57C485.008 508.57 484.078 509.016 483.586 509.773H483.547L483.859 506.375H489.172V504.727H482.25L481.711 511.281H483.469C483.602 511.031 483.789 510.812 484 510.641C484.43 510.281 484.984 510.086 485.625 510.086C486.945 510.086 487.891 511.008 487.891 512.297V512.312C487.891 513.633 486.961 514.555 485.617 514.555C484.43 514.555 483.57 513.828 483.406 512.883L483.398 512.828H481.508L481.516 512.93C481.664 514.797 483.258 516.195 485.602 516.195Z" fill="white"/>
<path d="M491.359 516H493.18V507.984H493.234L496.484 516H497.852L501.102 507.984H501.164V516H502.977V504.727H500.648L497.195 513.336H497.141L493.688 504.727H491.359V516Z" fill="white"/>
<path opacity="0.8" d="M470.233 258.178C470.233 248.691 477.923 241 487.41 241H729.617C739.104 241 746.794 248.691 746.794 258.178V457.44C746.794 466.927 739.104 474.617 729.617 474.617H487.41C477.923 474.617 470.233 466.927 470.233 457.44V258.178Z" fill="url(#paint1_linear)"/>
<g filter="url(#filter2_d)">
<path fill-rule="evenodd" clip-rule="evenodd" d="M725.629 311.034C724.377 315.274 723.604 320.931 723.604 328.176V328.219L723.6 328.261C722.742 336.879 720.554 342.228 715.414 344.138C712.902 345.07 709.804 345.127 706.046 344.495C702.281 343.862 697.772 342.522 692.392 340.579L692.335 340.558L692.282 340.53C685.548 336.957 679.783 334.692 674.69 334.198C669.648 333.71 665.24 334.953 661.149 338.482C657.019 342.045 653.171 347.974 649.393 356.936C645.619 365.887 641.945 377.791 638.12 393.229C637.237 396.791 635.08 402.063 632.15 407.093C629.228 412.111 625.469 417.009 621.329 419.714C619.249 421.074 617.023 421.912 614.729 421.881C612.417 421.85 610.136 420.939 607.965 418.98C603.677 415.113 599.738 407.094 596.511 393.216C593.295 379.388 589.94 370.358 586.516 365.108C584.807 362.487 583.122 360.872 581.491 360.045C579.89 359.232 578.286 359.148 576.628 359.697C574.94 360.255 573.163 361.483 571.306 363.356C569.454 365.224 567.563 367.691 565.639 370.661C561.796 376.595 557.877 384.451 553.916 393.334C550.924 402.253 547.491 407.573 542.225 409.653C537.004 411.716 530.266 410.465 521.045 407.143L521.002 407.127L520.962 407.108C512.915 403.209 506.259 401.961 498.786 403.84C491.247 405.736 482.782 410.836 471.191 419.895L470.133 418.541C481.749 409.463 490.455 404.164 498.367 402.174C506.334 400.171 513.402 401.543 521.67 405.542C530.884 408.859 537.04 409.855 541.594 408.056C546.103 406.275 549.327 401.625 552.3 392.749L552.314 392.71L552.33 392.672C556.308 383.749 560.275 375.783 564.197 369.727C566.158 366.699 568.122 364.127 570.086 362.146C572.045 360.171 574.046 358.742 576.089 358.066C578.161 357.38 580.241 357.484 582.269 358.513C584.267 359.527 586.155 361.409 587.955 364.169C591.55 369.682 594.958 378.957 598.184 392.827C601.399 406.649 605.244 414.213 609.115 417.705C611.024 419.427 612.916 420.139 614.752 420.164C616.604 420.188 618.498 419.513 620.39 418.276C624.195 415.79 627.79 411.167 630.666 406.229C633.533 401.304 635.617 396.185 636.452 392.815C640.287 377.342 643.986 365.34 647.81 356.269C651.63 347.208 655.604 340.997 660.027 337.181C664.49 333.332 669.369 331.957 674.856 332.489C680.277 333.014 686.266 335.397 693.033 338.984C698.351 340.903 702.729 342.195 706.331 342.801C709.952 343.41 712.707 343.311 714.816 342.527C718.909 341.007 721.028 336.697 721.886 328.133C721.889 320.797 722.673 314.981 723.981 310.548C725.29 306.116 727.143 303.001 729.332 301.162C731.553 299.297 734.091 298.776 736.577 299.513C739.022 300.238 741.315 302.146 743.21 304.932L743.242 304.98L747.133 312.761L745.596 313.53L741.757 305.851C740.01 303.298 738.021 301.733 736.089 301.16C734.187 300.596 732.242 300.961 730.437 302.477C728.6 304.02 726.884 306.783 725.629 311.034Z" fill="white"/>
</g>
<path opacity="0.4" fill-rule="evenodd" clip-rule="evenodd" d="M665.2 473.32V474.617H664.341V473.32H665.2ZM665.2 468.128V470.724H664.341V468.128H665.2ZM665.2 462.937V465.532H664.341V462.937H665.2ZM665.2 457.745V460.341H664.341V457.745H665.2ZM665.2 452.554V455.149H664.341V452.554H665.2ZM665.2 447.362V449.958H664.341V447.362H665.2ZM665.2 442.171V444.766H664.341V442.171H665.2ZM665.2 436.979V439.575H664.341V436.979H665.2ZM665.2 431.788V434.383H664.341V431.788H665.2ZM665.2 426.596V429.192H664.341V426.596H665.2ZM665.2 421.405V424H664.341V421.405H665.2ZM665.2 416.213V418.809H664.341V416.213H665.2ZM665.2 411.022V413.617H664.341V411.022H665.2ZM665.2 405.83V408.426H664.341V405.83H665.2ZM665.2 400.639V403.234H664.341V400.639H665.2ZM665.2 395.447V398.043H664.341V395.447H665.2ZM665.2 390.256V392.851H664.341V390.256H665.2ZM665.2 385.064V387.66H664.341V385.064H665.2ZM665.2 379.873V382.468H664.341V379.873H665.2ZM665.2 374.681V377.277H664.341V374.681H665.2ZM665.2 369.49V372.085H664.341V369.49H665.2ZM665.2 364.298V366.894H664.341V364.298H665.2ZM665.2 359.107V361.702H664.341V359.107H665.2ZM665.2 353.915V356.511H664.341V353.915H665.2ZM665.2 348.724V351.319H664.341V348.724H665.2ZM665.2 343.532V346.128H664.341V343.532H665.2ZM665.2 338.341V340.936H664.341V338.341H665.2ZM665.2 333.149V335.745H664.341V333.149H665.2ZM665.2 327.958V330.553H664.341V327.958H665.2ZM665.2 322.766V325.362H664.341V322.766H665.2ZM665.2 317.575V320.17H664.341V317.575H665.2ZM665.2 312.383V314.979H664.341V312.383H665.2ZM665.2 307.192V309.787H664.341V307.192H665.2ZM665.2 302V304.596H664.341V302H665.2ZM665.2 296.809V299.404H664.341V296.809H665.2ZM665.2 291.617V294.213H664.341V291.617H665.2ZM665.2 286.426V289.021H664.341V286.426H665.2ZM665.2 281.234V283.83H664.341V281.234H665.2ZM665.2 276.043V278.639H664.341V276.043H665.2ZM665.2 270.851V273.447H664.341V270.851H665.2ZM665.2 265.66V268.256H664.341V265.66H665.2ZM665.2 260.468V263.064H664.341V260.468H665.2ZM665.2 255.277V257.873H664.341V255.277H665.2ZM665.2 250.085V252.681H664.341V250.085H665.2ZM665.2 244.894V247.49H664.341V244.894H665.2ZM665.2 241V242.298H664.341V241H665.2Z" fill="white"/>
<path d="M671.212 334.189C671.212 337.747 668.328 340.631 664.77 340.631C661.213 340.631 658.329 337.747 658.329 334.189C658.329 330.632 661.213 327.748 664.77 327.748C668.328 327.748 671.212 330.632 671.212 334.189Z" fill="white" fill-opacity="0.5"/>
<path d="M668.635 334.189C668.635 336.324 666.905 338.054 664.77 338.054C662.636 338.054 660.905 336.324 660.905 334.189C660.905 332.055 662.636 330.324 664.77 330.324C666.905 330.324 668.635 332.055 668.635 334.189Z" fill="white"/>
<path d="M623.973 284.803C623.973 282.431 625.896 280.509 628.267 280.509H702.132C704.503 280.509 706.426 282.431 706.426 284.803V314.864C706.426 317.236 704.503 319.159 702.132 319.159H669.494H665.2H660.046H628.267C625.896 319.159 623.973 317.236 623.973 314.864V284.803Z" fill="white"/>
<path d="M666.144 323.34C665.457 324.256 664.084 324.256 663.397 323.34L659.936 318.729L669.605 318.729L666.144 323.34Z" fill="white"/>
<path d="M642.582 304.364H644.388V292.727H642.566L639.433 294.904V296.614L642.541 294.517H642.582V304.364Z" fill="#828282"/>
<path d="M647.289 304.364H655.426V302.84H649.763V302.767L652.466 300.17C654.602 298.106 655.236 297.162 655.236 295.832V295.816C655.236 293.936 653.604 292.533 651.321 292.533C648.996 292.533 647.19 294.041 647.19 296.122V296.17H648.938V296.122C648.955 294.945 649.952 294.025 651.345 294.025C652.549 294.025 653.406 294.816 653.415 295.92V295.936C653.415 296.84 653.06 297.453 651.477 299.001L647.289 303.122V304.364Z" fill="#828282"/>
<path d="M661.32 304.558C663.884 304.558 665.689 302.92 665.689 300.558V300.541C665.689 298.316 664.049 296.711 661.774 296.711C660.603 296.711 659.614 297.154 659.078 297.937H659.037L659.399 294.251H664.997V292.727H657.907L657.322 299.437H658.938C659.094 299.178 659.284 298.953 659.507 298.767C659.985 298.348 660.62 298.138 661.353 298.138C662.829 298.138 663.876 299.146 663.884 300.574V300.59C663.884 302.033 662.837 303.05 661.337 303.05C660.01 303.05 659.037 302.243 658.88 301.195L658.872 301.13H657.108L657.116 301.227C657.281 303.146 658.938 304.558 661.32 304.558Z" fill="#828282"/>
<path d="M668.13 304.485C668.731 304.485 669.21 304.017 669.21 303.429C669.21 302.832 668.731 302.372 668.13 302.372C667.52 302.372 667.041 302.832 667.041 303.429C667.041 304.017 667.52 304.485 668.13 304.485Z" fill="#828282"/>
<path d="M676.67 304.364H678.443V302.05H680.083V300.533H678.443V292.727H675.772L670.718 300.477V302.05H676.67V304.364ZM672.433 300.558V300.509L676.637 294.154H676.687V300.558H672.433Z" fill="#828282"/>
<path d="M685.738 304.558C688.302 304.558 690.107 302.92 690.107 300.558V300.541C690.107 298.316 688.467 296.711 686.192 296.711C685.021 296.711 684.032 297.154 683.496 297.937H683.455L683.817 294.251H689.415V292.727H682.325L681.74 299.437H683.356C683.512 299.178 683.702 298.953 683.925 298.767C684.403 298.348 685.038 298.138 685.771 298.138C687.247 298.138 688.294 299.146 688.302 300.574V300.59C688.302 302.033 687.255 303.05 685.755 303.05C684.428 303.05 683.455 302.243 683.298 301.195L683.29 301.13H681.526L681.534 301.227C681.699 303.146 683.356 304.558 685.738 304.558Z" fill="#828282"/>
<g opacity="0.5">
<path d="M715.554 320.877H720.657V319.815H717.27V319.759L718.87 318.239C720.149 317.012 720.546 316.433 720.546 315.577V315.567C720.546 314.369 719.53 313.489 718.075 313.489C716.601 313.489 715.483 314.44 715.483 315.769V315.804H716.701V315.769C716.716 315.069 717.28 314.531 718.085 314.531C718.785 314.531 719.273 314.994 719.278 315.643V315.653C719.278 316.191 719.072 316.559 718.12 317.49L715.554 319.991V320.877Z" fill="white"/>
<path d="M724.436 321.002C726.001 321.002 727.149 319.951 727.149 318.486V318.476C727.149 317.112 726.167 316.106 724.768 316.106C723.782 316.106 723.057 316.609 722.771 317.273H722.745C722.745 317.193 722.745 317.117 722.75 317.042C722.801 315.668 723.289 314.551 724.456 314.551C725.106 314.551 725.554 314.873 725.745 315.371L725.765 315.416H727.053L727.043 315.361C726.812 314.264 725.81 313.489 724.466 313.489C722.615 313.489 721.502 314.923 721.502 317.324V317.334C721.502 319.88 722.831 321.002 724.436 321.002ZM722.967 318.506V318.501C722.967 317.691 723.601 317.107 724.431 317.107C725.262 317.107 725.871 317.696 725.871 318.521V318.531C725.871 319.316 725.226 319.94 724.416 319.94C723.606 319.94 722.967 319.311 722.967 318.506Z" fill="white"/>
<path d="M730.953 321.002C732.73 321.002 733.807 319.558 733.807 317.248V317.238C733.807 314.928 732.73 313.489 730.953 313.489C729.172 313.489 728.1 314.928 728.1 317.238V317.248C728.1 319.558 729.172 321.002 730.953 321.002ZM730.953 319.94C729.972 319.94 729.408 318.924 729.408 317.248V317.238C729.408 315.562 729.972 314.556 730.953 314.556C731.93 314.556 732.498 315.562 732.498 317.238V317.248C732.498 318.924 731.93 319.94 730.953 319.94Z" fill="white"/>
</g>
<g opacity="0.5">
<path d="M715.554 355.232H720.657V354.17H717.27V354.115L718.87 352.595C720.149 351.367 720.546 350.788 720.546 349.933V349.923C720.546 348.725 719.53 347.844 718.075 347.844C716.601 347.844 715.483 348.795 715.483 350.124V350.159H716.701V350.124C716.716 349.424 717.28 348.886 718.085 348.886C718.785 348.886 719.273 349.349 719.278 349.998V350.008C719.278 350.547 719.072 350.914 718.12 351.845L715.554 354.346V355.232Z" fill="white"/>
<path d="M724.919 355.232H726.157V353.838H727.144V352.771H726.157V347.97H724.31L721.296 352.731V353.838H724.919V355.232ZM722.464 352.801V352.766L724.909 348.951H724.94V352.801H722.464Z" fill="white"/>
<path d="M730.657 355.358C732.262 355.358 733.384 354.331 733.384 352.837V352.826C733.384 351.448 732.388 350.446 731.004 350.446C730.274 350.446 729.675 350.733 729.358 351.221H729.333L729.534 349.032H732.956V347.97H728.498L728.15 352.192H729.283C729.368 352.031 729.489 351.89 729.625 351.78C729.902 351.548 730.259 351.422 730.672 351.422C731.522 351.422 732.131 352.016 732.131 352.847V352.857C732.131 353.707 731.532 354.301 730.667 354.301C729.902 354.301 729.348 353.833 729.242 353.224L729.237 353.189H728.019L728.024 353.254C728.12 354.457 729.147 355.358 730.657 355.358Z" fill="white"/>
</g>
<g opacity="0.5">
<path d="M715.554 389.587H720.657V388.526H717.27V388.47L718.87 386.95C720.149 385.722 720.546 385.144 720.546 384.288V384.278C720.546 383.08 719.53 382.2 718.075 382.2C716.601 382.2 715.483 383.151 715.483 384.479V384.515H716.701V384.479C716.716 383.78 717.28 383.241 718.085 383.241C718.785 383.241 719.273 383.704 719.278 384.354V384.364C719.278 384.902 719.072 385.27 718.12 386.201L715.554 388.702V389.587Z" fill="white"/>
<path d="M724.245 389.713C725.85 389.713 726.958 388.828 726.958 387.564V387.554C726.958 386.548 726.248 385.914 725.176 385.813V385.788C726.047 385.607 726.701 385.008 726.701 384.107V384.097C726.701 382.97 725.73 382.2 724.23 382.2C722.765 382.2 721.774 383.015 721.668 384.243L721.663 384.303H722.871L722.876 384.253C722.942 383.629 723.465 383.231 724.23 383.231C725.01 383.231 725.453 383.614 725.453 384.268V384.278C725.453 384.912 724.919 385.365 724.119 385.365H723.289V386.331H724.149C725.075 386.331 725.639 386.754 725.639 387.519V387.529C725.639 388.188 725.08 388.651 724.24 388.651C723.39 388.651 722.826 388.224 722.755 387.635L722.75 387.579H721.507L721.512 387.64C721.613 388.858 722.65 389.713 724.245 389.713Z" fill="white"/>
<path d="M730.712 389.713C732.488 389.713 733.565 388.269 733.565 385.959V385.949C733.565 383.639 732.488 382.2 730.712 382.2C728.93 382.2 727.858 383.639 727.858 385.949V385.959C727.858 388.269 728.93 389.713 730.712 389.713ZM730.712 388.651C729.731 388.651 729.167 387.635 729.167 385.959V385.949C729.167 384.273 729.731 383.267 730.712 383.267C731.688 383.267 732.257 384.273 732.257 385.949V385.959C732.257 387.635 731.688 388.651 730.712 388.651Z" fill="white"/>
</g>
<g opacity="0.5">
<path d="M715.554 423.943H720.657V422.881H717.27V422.826L718.87 421.306C720.149 420.078 720.546 419.499 720.546 418.644V418.634C720.546 417.436 719.53 416.555 718.075 416.555C716.601 416.555 715.483 417.506 715.483 418.835V418.87H716.701V418.835C716.716 418.135 717.28 417.597 718.085 417.597C718.785 417.597 719.273 418.06 719.278 418.709V418.719C719.278 419.258 719.072 419.625 718.12 420.556L715.554 423.057V423.943Z" fill="white"/>
<path d="M723.465 423.943H724.738V416.681H723.455L721.558 418.015V419.207L723.435 417.919H723.465V423.943Z" fill="white"/>
<path d="M729.127 424.069C730.732 424.069 731.854 423.042 731.854 421.547V421.537C731.854 420.158 730.858 419.157 729.474 419.157C728.744 419.157 728.145 419.444 727.828 419.932H727.803L728.004 417.743H731.426V416.681H726.968L726.62 420.903H727.753C727.838 420.742 727.959 420.601 728.095 420.491C728.372 420.259 728.729 420.133 729.142 420.133C729.992 420.133 730.601 420.727 730.601 421.558V421.568C730.601 422.418 730.002 423.012 729.137 423.012C728.372 423.012 727.818 422.544 727.712 421.935L727.707 421.9H726.49L726.495 421.965C726.59 423.168 727.617 424.069 729.127 424.069Z" fill="white"/>
</g>
<g opacity="0.5">
<path d="M715.554 458.299H720.657V457.237H717.27V457.181L718.87 455.662C720.149 454.434 720.546 453.855 720.546 452.999V452.989C720.546 451.792 719.53 450.911 718.075 450.911C716.601 450.911 715.483 451.862 715.483 453.191V453.226H716.701V453.191C716.716 452.491 717.28 451.953 718.085 451.953C718.785 451.953 719.273 452.416 719.278 453.065V453.075C719.278 453.613 719.072 453.981 718.12 454.912L715.554 457.413V458.299Z" fill="white"/>
<path d="M724.361 458.424C726.137 458.424 727.214 456.98 727.214 454.67V454.66C727.214 452.35 726.137 450.911 724.361 450.911C722.579 450.911 721.507 452.35 721.507 454.66V454.67C721.507 456.98 722.579 458.424 724.361 458.424ZM724.361 457.363C723.379 457.363 722.816 456.346 722.816 454.67V454.66C722.816 452.984 723.379 451.978 724.361 451.978C725.337 451.978 725.906 452.984 725.906 454.66V454.67C725.906 456.346 725.337 457.363 724.361 457.363Z" fill="white"/>
<path d="M730.933 458.424C732.71 458.424 733.787 456.98 733.787 454.67V454.66C733.787 452.35 732.71 450.911 730.933 450.911C729.152 450.911 728.08 452.35 728.08 454.66V454.67C728.08 456.98 729.152 458.424 730.933 458.424ZM730.933 457.363C729.952 457.363 729.388 456.346 729.388 454.67V454.66C729.388 452.984 729.952 451.978 730.933 451.978C731.91 451.978 732.478 452.984 732.478 454.66V454.67C732.478 456.346 731.91 457.363 730.933 457.363Z" fill="white"/>
</g>
<path d="M490.801 280.509H493.619V272.91H501.42V270.532H493.619V264.782H502.137V262.354H490.801V280.509Z" fill="white"/>
<path d="M512.353 280.811C516.366 280.811 519.373 278.383 519.939 274.772L519.952 274.646H517.159L517.121 274.759C516.442 277.062 514.769 278.32 512.353 278.32C508.994 278.32 506.817 275.627 506.817 271.425V271.413C506.817 267.21 508.981 264.543 512.353 264.543C514.794 264.543 516.48 265.839 517.083 267.965L517.159 268.217H519.952L519.927 268.104C519.361 264.518 516.354 262.052 512.353 262.052C507.207 262.052 503.936 265.65 503.936 271.413V271.425C503.936 277.187 507.207 280.811 512.353 280.811Z" fill="white"/>
<path d="M520.631 280.509H523.752L528.306 273.577H528.407L532.936 280.509H536.232L530.193 271.475V271.425L536.346 262.354H533.162L528.658 269.387H528.545L524.054 262.354H520.694L526.67 271.337V271.375L520.631 280.509Z" fill="white"/>
<g opacity="0.7" filter="url(#filter3_d)">
<path d="M309.133 521C309.133 509.954 318.087 501 329.133 501H381.133C392.179 501 401.133 509.954 401.133 521V575C401.133 586.046 392.179 595 381.133 595H329.133C318.087 595 309.133 586.046 309.133 575V521Z" fill="white"/>
</g>
<path d="M346.811 552.868L352.049 546.06L358.024 550.753L363.15 544.138" stroke="url(#paint2_linear)" stroke-width="3" stroke-linecap="round" stroke-linejoin="round"/>
<ellipse cx="369.125" cy="534.35" rx="3.36384" ry="3.36384" stroke="url(#paint3_linear)" stroke-width="3" stroke-linecap="round" stroke-linejoin="round"/>
<path d="M360.251 532.46H347.532C342.262 532.46 338.994 536.192 338.994 541.462V555.607C338.994 560.877 342.198 564.593 347.532 564.593H362.589C367.859 564.593 371.127 560.877 371.127 555.607V543.289" stroke="url(#paint4_linear)" stroke-width="3" stroke-linecap="round" stroke-linejoin="round"/>
<defs>
<filter id="filter0_d" x="0.132812" y="70" width="587" height="593" filterUnits="userSpaceOnUse" color-interpolation-filters="sRGB">
<feFlood flood-opacity="0" result="BackgroundImageFix"/>
<feColorMatrix in="SourceAlpha" type="matrix" values="0 0 0 0 0 0 0 0 0 0 0 0 0 0 0 0 0 0 127 0" result="hardAlpha"/>
<feOffset dy="20"/>
<feGaussianBlur stdDeviation="90"/>
<feColorMatrix type="matrix" values="0 0 0 0 0 0 0 0 0 0 0 0 0 0 0 0 0 0 0.1 0"/>
<feBlend mode="normal" in2="BackgroundImageFix" result="effect1_dropShadow"/>
<feBlend mode="normal" in="SourceGraphic" in2="effect1_dropShadow" result="shape"/>
</filter>
<filter id="filter1_d" x="257.098" y="0.241211" width="705.379" height="753.931" filterUnits="userSpaceOnUse" color-interpolation-filters="sRGB">
<feFlood flood-opacity="0" result="BackgroundImageFix"/>
<feColorMatrix in="SourceAlpha" type="matrix" values="0 0 0 0 0 0 0 0 0 0 0 0 0 0 0 0 0 0 127 0" result="hardAlpha"/>
<feOffset dy="20"/>
<feGaussianBlur stdDeviation="90"/>
<feColorMatrix type="matrix" values="0 0 0 0 0 0 0 0 0 0 0 0 0 0 0 0 0 0 0.15 0"/>
<feBlend mode="normal" in2="BackgroundImageFix" result="effect1_dropShadow"/>
<feBlend mode="normal" in="SourceGraphic" in2="effect1_dropShadow" result="shape"/>
</filter>
<filter id="filter2_d" x="466.133" y="299.191" width="285" height="138.691" filterUnits="userSpaceOnUse" color-interpolation-filters="sRGB">
<feFlood flood-opacity="0" result="BackgroundImageFix"/>
<feColorMatrix in="SourceAlpha" type="matrix" values="0 0 0 0 0 0 0 0 0 0 0 0 0 0 0 0 0 0 127 0" result="hardAlpha"/>
<feOffset dy="12"/>
<feGaussianBlur stdDeviation="2"/>
<feColorMatrix type="matrix" values="0 0 0 0 0 0 0 0 0 0 0 0 0 0 0 0 0 0 0.55 0"/>
<feBlend mode="normal" in2="BackgroundImageFix" result="effect1_dropShadow"/>
<feBlend mode="normal" in="SourceGraphic" in2="effect1_dropShadow" result="shape"/>
</filter>
<filter id="filter3_d" x="129.133" y="341" width="452" height="454" filterUnits="userSpaceOnUse" color-interpolation-filters="sRGB">
<feFlood flood-opacity="0" result="BackgroundImageFix"/>
<feColorMatrix in="SourceAlpha" type="matrix" values="0 0 0 0 0 0 0 0 0 0 0 0 0 0 0 0 0 0 127 0" result="hardAlpha"/>
<feOffset dy="20"/>
<feGaussianBlur stdDeviation="90"/>
<feColorMatrix type="matrix" values="0 0 0 0 0 0 0 0 0 0 0 0 0 0 0 0 0 0 0.3 0"/>
<feBlend mode="normal" in2="BackgroundImageFix" result="effect1_dropShadow"/>
<feBlend mode="normal" in="SourceGraphic" in2="effect1_dropShadow" result="shape"/>
</filter>
<linearGradient id="paint0_linear" x1="181.967" y1="29.32" x2="1263.35" y2="339.269" gradientUnits="userSpaceOnUse">
<stop stop-color="#1A88C9"/>
<stop offset="1" stop-color="#9149FF"/>
</linearGradient>
<linearGradient id="paint1_linear" x1="458.464" y1="228.151" x2="962.325" y2="399.117" gradientUnits="userSpaceOnUse">
<stop stop-color="#1A88C9"/>
<stop offset="1" stop-color="#9149FF"/>
</linearGradient>
<linearGradient id="paint2_linear" x1="346.116" y1="543.658" x2="371.893" y2="557.485" gradientUnits="userSpaceOnUse">
<stop stop-color="#1A88C9"/>
<stop offset="1" stop-color="#9149FF"/>
</linearGradient>
<linearGradient id="paint3_linear" x1="365.475" y1="530.617" x2="378.105" y2="534.237" gradientUnits="userSpaceOnUse">
<stop stop-color="#1A88C9"/>
<stop offset="1" stop-color="#9149FF"/>
</linearGradient>
<linearGradient id="paint4_linear" x1="337.627" y1="530.693" x2="397.953" y2="547.984" gradientUnits="userSpaceOnUse">
<stop stop-color="#1A88C9"/>
<stop offset="1" stop-color="#9149FF"/>
</linearGradient>
</defs>
</svg>
