<svg width="12" height="9" viewBox="0 0 12 9" fill="none" xmlns="http://www.w3.org/2000/svg">
<path d="M5.14279 6.83257L8.68964 3.28571H9.8325L11.9165 1.20229L11.5119 0.797714L9.59593 2.71429H8.45307L5.14279 6.02457L3.4285 4.31029L0.654785 7.08343L1.05936 7.488L3.4285 5.11829L5.14279 6.83257Z" fill="white"/>
<path d="M3.14265 6.14286H3.71408V6.71429H3.14265V6.14286ZM3.71408 6.71429H4.28551V7.28572H3.71408V6.71429ZM3.14265 7.28572H3.71408V7.85714H3.14265V7.28572ZM4.28551 7.28572H4.85693V7.85714H4.28551V7.28572ZM3.71408 7.85714H4.28551V8.42857H3.71408V7.85714ZM3.14265 8.42857H3.71408V9H3.14265V8.42857ZM4.28551 8.42857H4.85693V9H4.28551V8.42857ZM2.57122 6.71429H3.14265V7.28572H2.57122V6.71429ZM1.99979 7.28572H2.57122V7.85714H1.99979V7.28572ZM1.42836 7.85714H1.99979V8.42857H1.42836V7.85714ZM2.57122 7.85714H3.14265V8.42857H2.57122V7.85714ZM1.99979 8.42857H2.57122V9H1.99979V8.42857ZM0.856934 8.42857H1.42836V9H0.856934V8.42857ZM10.5712 3.28572H11.1426V3.85714H10.5712V3.28572ZM11.1426 2.71429H11.7141V3.28572H11.1426V2.71429ZM11.1426 3.85714H11.7141V4.42857H11.1426V3.85714ZM10.5712 4.42857H11.1426V5H10.5712V4.42857ZM9.99979 5H10.5712V5.57143H9.99979V5ZM11.1426 5H11.7141V5.57143H11.1426V5ZM10.5712 5.57143H11.1426V6.14286H10.5712V5.57143ZM9.99979 6.14286H10.5712V6.71429H9.99979V6.14286ZM11.1426 6.14286H11.7141V6.71429H11.1426V6.14286ZM10.5712 6.71429H11.1426V7.28572H10.5712V6.71429ZM9.99979 7.28572H10.5712V7.85714H9.99979V7.28572ZM11.1426 7.28572H11.7141V7.85714H11.1426V7.28572ZM10.5712 7.85714H11.1426V8.42857H10.5712V7.85714ZM9.99979 8.42857H10.5712V9H9.99979V8.42857ZM11.1426 8.42857H11.7141V9H11.1426V8.42857ZM8.28551 4.42857H8.85693V5H8.28551V4.42857ZM9.42836 4.42857H9.99979V5H9.42836V4.42857ZM9.99979 3.85714H10.5712V4.42857H9.99979V3.85714ZM8.85693 5H9.42836V5.57143H8.85693V5ZM8.28551 5.57143H8.85693V6.14286H8.28551V5.57143ZM9.42836 5.57143H9.99979V6.14286H9.42836V5.57143ZM8.85693 6.14286H9.42836V6.71429H8.85693V6.14286ZM8.28551 6.71429H8.85693V7.28572H8.28551V6.71429ZM9.42836 6.71429H9.99979V7.28572H9.42836V6.71429ZM8.85693 7.28572H9.42836V7.85714H8.85693V7.28572ZM8.28551 7.85714H8.85693V8.42857H8.28551V7.85714ZM9.42836 7.85714H9.99979V8.42857H9.42836V7.85714ZM8.85693 8.42857H9.42836V9H8.85693V8.42857ZM7.71408 5H8.28551V5.57143H7.71408V5ZM7.14265 5.57143H7.71408V6.14286H7.14265V5.57143ZM6.57122 6.14286H7.14265V6.71429H6.57122V6.14286ZM7.71408 6.14286H8.28551V6.71429H7.71408V6.14286ZM7.14265 6.71429H7.71408V7.28572H7.14265V6.71429ZM6.57122 7.28572H7.14265V7.85714H6.57122V7.28572ZM7.71408 7.28572H8.28551V7.85714H7.71408V7.28572ZM7.14265 7.85714H7.71408V8.42857H7.14265V7.85714ZM6.57122 8.42857H7.14265V9H6.57122V8.42857ZM7.71408 8.42857H8.28551V9H7.71408V8.42857ZM5.99979 6.71429H6.57122V7.28572H5.99979V6.71429ZM5.42836 7.28572H5.99979V7.85714H5.42836V7.28572ZM4.85693 7.85714H5.42836V8.42857H4.85693V7.85714ZM5.99979 7.85714H6.57122V8.42857H5.99979V7.85714ZM5.42836 8.42857H5.99979V9H5.42836V8.42857Z" fill="white"/>
</svg>
