<svg width="16" height="16" viewBox="0 0 16 16" fill="none" xmlns="http://www.w3.org/2000/svg">
<path d="M8.28551 9.14286C7.90662 9.14286 7.54326 8.99235 7.27535 8.72444C7.00744 8.45653 6.85693 8.09317 6.85693 7.71429C6.85693 7.3354 7.00744 6.97204 7.27535 6.70413C7.54326 6.43622 7.90662 6.28571 8.28551 6.28571C8.66439 6.28571 9.02775 6.43622 9.29566 6.70413C9.56357 6.97204 9.71408 7.3354 9.71408 7.71429C9.71408 8.09317 9.56357 8.45653 9.29566 8.72444C9.02775 8.99235 8.66439 9.14286 8.28551 9.14286ZM8.28551 8.57143C8.51283 8.57143 8.73085 8.48112 8.8916 8.32038C9.05234 8.15963 9.14265 7.94161 9.14265 7.71429C9.14265 7.48696 9.05234 7.26894 8.8916 7.10819C8.73085 6.94745 8.51283 6.85714 8.28551 6.85714C8.05818 6.85714 7.84016 6.94745 7.67941 7.10819C7.51867 7.26894 7.42836 7.48696 7.42836 7.71429C7.42836 7.94161 7.51867 8.15963 7.67941 8.32038C7.84016 8.48112 8.05818 8.57143 8.28551 8.57143ZM8.28551 12.5714C7.90662 12.5714 7.54326 12.4209 7.27535 12.153C7.00744 11.8851 6.85693 11.5217 6.85693 11.1429C6.85693 10.764 7.00744 10.4006 7.27535 10.1327C7.54326 9.8648 7.90662 9.71429 8.28551 9.71429C8.66439 9.71429 9.02775 9.8648 9.29566 10.1327C9.56357 10.4006 9.71408 10.764 9.71408 11.1429C9.71408 11.5217 9.56357 11.8851 9.29566 12.153C9.02775 12.4209 8.66439 12.5714 8.28551 12.5714ZM8.28551 12C8.51283 12 8.73085 11.9097 8.8916 11.7489C9.05234 11.5882 9.14265 11.3702 9.14265 11.1429C9.14265 10.9155 9.05234 10.6975 8.8916 10.5368C8.73085 10.376 8.51283 10.2857 8.28551 10.2857C8.05818 10.2857 7.84016 10.376 7.67941 10.5368C7.51867 10.6975 7.42836 10.9155 7.42836 11.1429C7.42836 11.3702 7.51867 11.5882 7.67941 11.7489C7.84016 11.9097 8.05818 12 8.28551 12ZM10.1672 3.14286L12.8569 5.83257L13.2609 5.42857L10.5712 2.73886L10.1672 3.14286Z" fill="#828282"/>
<path d="M10.5715 5.83257L13.2612 3.14286L12.8572 2.73886L10.1675 5.42857L10.5715 5.83257ZM10.1675 6.57143L12.8572 9.26114L13.2612 8.85714L10.5715 6.16743L10.1675 6.57143Z" fill="#828282"/>
<path d="M10.5712 9.26114L13.2609 6.57143L12.8569 6.16743L10.1672 8.85714L10.5712 9.26114ZM3.31006 10L5.99977 12.6897L6.40377 12.2857L3.71406 9.596L3.31006 10Z" fill="#828282"/>
<path d="M3.71406 12.6897L6.40377 10L5.99977 9.596L3.31006 12.2857L3.71406 12.6897ZM3.31006 3.14286L5.99977 5.83257L6.40377 5.42857L3.71406 2.73886L3.31006 3.14286Z" fill="#828282"/>
<path d="M3.71406 5.83257L6.40377 3.14286L5.99977 2.73886L3.31006 5.42857L3.71406 5.83257ZM3.31006 6.57143L5.99977 9.26114L6.40377 8.85714L3.71406 6.16743L3.31006 6.57143Z" fill="#828282"/>
<path d="M3.71406 9.26114L6.40377 6.57143L5.99977 6.16743L3.31006 8.85714L3.71406 9.26114Z" fill="#828282"/>
</svg>
