<svg width="20" height="20" viewBox="0 0 20 20" fill="none" xmlns="http://www.w3.org/2000/svg">
<path d="M10 13.7451C10.3506 13.7451 10.6348 13.4609 10.6348 13.1104C10.6348 12.7598 10.3506 12.4756 10 12.4756C9.64943 12.4756 9.36523 12.7598 9.36523 13.1104C9.36523 13.4609 9.64943 13.7451 10 13.7451Z" fill="#848E9C"/>
<path d="M10 3.5C6.40763 3.5 3.5 6.40715 3.5 10C3.5 13.5924 6.40715 16.5 10 16.5C13.5924 16.5 16.5 13.5928 16.5 10C16.5 6.40763 13.5928 3.5 10 3.5ZM10 15.4844C6.96894 15.4844 4.51562 13.0315 4.51562 10C4.51562 6.96894 6.96854 4.51562 10 4.51562C13.0311 4.51562 15.4844 6.96854 15.4844 10C15.4844 13.0311 13.0315 15.4844 10 15.4844Z" fill="#848E9C"/>
<path d="M10 6.7627C8.87997 6.7627 7.96875 7.67391 7.96875 8.79395C7.96875 9.07441 8.1961 9.30176 8.47656 9.30176C8.75703 9.30176 8.98438 9.07441 8.98438 8.79395C8.98438 8.23393 9.43998 7.77832 10 7.77832C10.56 7.77832 11.0156 8.23393 11.0156 8.79395C11.0156 9.35396 10.56 9.80957 10 9.80957C9.71954 9.80957 9.49219 10.0369 9.49219 10.3174V11.5869C9.49219 11.8674 9.71954 12.0947 10 12.0947C10.2805 12.0947 10.5078 11.8674 10.5078 11.5869V10.7609C11.3829 10.5349 12.0312 9.73871 12.0312 8.79395C12.0312 7.67391 11.12 6.7627 10 6.7627Z" fill="#848E9C"/>
</svg>