<svg width="17" height="16" viewBox="0 0 17 16" fill="none" xmlns="http://www.w3.org/2000/svg">
<path d="M13.1328 6.00476L5.23843 9.80775L4.54784 10.1343L3.13281 10.8193V11.6388L4.54107 10.9602L5.74622 10.3776L11.5688 7.57333C11.8193 9.36599 10.4856 11.0114 8.58982 11.2483C8.44087 11.2675 8.28515 11.2803 8.12943 11.2803C7.5404 11.2803 6.95813 11.133 6.43681 10.8577L6.39618 10.8833L5.65143 11.2355C7.5404 12.5351 10.1877 12.1382 11.5621 10.3455C12.0834 9.6669 12.3677 8.8474 12.3677 8.00229C12.3677 7.89985 12.3677 7.79741 12.3542 7.69498C12.3339 7.40047 12.4964 7.12517 12.774 6.99072L13.1328 6.81146V6.00476ZM11.7246 5.05081L10.5194 5.62702L4.70356 8.43125C4.45306 6.63859 5.79361 4.99319 7.68935 4.75631C8.42733 4.66667 9.17885 4.80112 9.82882 5.14685L10.5194 4.81393L10.621 4.76271C8.732 3.46304 6.08474 3.86638 4.71033 5.65263C4.18224 6.33768 3.90465 7.15718 3.90465 8.00229C3.90465 8.10473 3.90465 8.20716 3.91142 8.3096C3.9385 8.59771 3.77601 8.87941 3.49842 9.01386L3.13281 9.18672V10.0062L4.20255 9.48763L4.54784 9.32117L4.89314 9.16111L11.0204 6.20323L11.711 5.87031L13.1328 5.18526V4.36576L11.7246 5.05081Z" fill="#4E4B66"/>
</svg>
