<svg width="16" height="16" viewBox="0 0 16 16" fill="none" xmlns="http://www.w3.org/2000/svg">
<g clip-path="url(#clip0)">
<path d="M8.12405 4.55307C8.41814 4.43035 8.73402 4.34328 9.06692 4.30008C9.82734 4.20478 10.6014 4.34739 11.2713 4.71351L11.9827 4.3611L12.0875 4.30694C10.7157 3.3368 8.95663 3.26413 7.54199 3.96688L8.12405 4.55307Z" fill="#848E9C"/>
<path d="M13.2237 4.61278L11.9826 5.22297L9.84229 6.2843L10.4196 6.86569L12.4986 5.83317L13.2101 5.48076L14.6744 4.7547V3.88672L13.2237 4.61278Z" fill="#848E9C"/>
<path d="M11.5688 8.02268L11.5641 8.02748L13.0638 7.28496C13.3218 9.1841 11.948 10.9269 9.99488 11.1785C9.84171 11.1991 9.68104 11.2121 9.52038 11.2121C9.18817 11.2121 8.85867 11.1635 8.53939 11.0736L7.93555 11.6818C9.73891 12.3722 11.8636 11.8223 13.057 10.2214C13.5941 9.50223 13.8868 8.63424 13.8868 7.73884C13.8868 7.63051 13.8868 7.5215 13.8732 7.41317C13.8521 7.10122 14.0196 6.80984 14.3055 6.66723L14.6752 6.47732V5.62305L10.9963 7.4454L11.5688 8.02268Z" fill="#848E9C"/>
<path d="M4.13678 7.46727L5.8108 5.78204L7.48549 7.46864L8.459 6.48753L5.8108 3.81982L3.1626 6.48685L4.13678 7.46727Z" fill="#F3BA2F"/>
<path d="M1.5 8.1606L2.4735 7.18018L3.447 8.1606L2.4735 9.14102L1.5 8.1606Z" fill="#F3BA2F"/>
<path d="M4.13692 8.85274L5.81094 10.5387L7.48563 8.85205L8.45981 9.83179L8.45913 9.83247L5.81094 12.5002L3.16274 9.83384L3.16138 9.83247L4.13692 8.85274Z" fill="#F3BA2F"/>
<path d="M8.17139 8.1606L9.14489 7.18018L10.1184 8.1606L9.14489 9.14102L8.17139 8.1606Z" fill="#F3BA2F"/>
<path d="M6.79849 8.16005L5.81069 7.16455L5.08023 7.90021L4.99581 7.98454L4.82289 8.15868L4.82153 8.16005L4.82289 8.16211L5.81069 9.15624L6.79849 8.16074L6.79917 8.16005H6.79849Z" fill="#F3BA2F"/>
</g>
<defs>
<clipPath id="clip0">
<rect width="13" height="9" fill="white" transform="translate(1.5 3.5)"/>
</clipPath>
</defs>
</svg>
