<svg width="16" height="16" viewBox="0 0 16 16" fill="none" xmlns="http://www.w3.org/2000/svg">
<path d="M5.7673 7.08213L8.00079 4.84954L10.2352 7.08394L11.5341 5.78417L8.00079 2.25L4.46753 5.78327L5.7673 7.08213Z" fill="#F3BA2F"/>
<path d="M2.25 8.00049L3.54929 6.70119L4.84859 8.00049L3.54929 9.29978L2.25 8.00049Z" fill="#F3BA2F"/>
<path d="M5.76741 8.9179L8.0009 11.1514L10.2353 8.91699L11.5351 10.2149L11.5342 10.2159L8.0009 13.75L4.46764 10.2177L4.46582 10.2159L5.76741 8.9179Z" fill="#F3BA2F"/>
<path d="M11.1509 8.00098L12.4502 6.70168L13.7495 8.00098L12.4502 9.30027L11.1509 8.00098Z" fill="#F3BA2F"/>
<path d="M9.31884 7.99951L8.0009 6.68066L7.0263 7.65526L6.91368 7.76698L6.68297 7.99769L6.68115 7.99951L6.68297 8.00223L8.0009 9.31926L9.31884 8.00042L9.31975 7.99951H9.31884Z" fill="#F3BA2F"/>
</svg>
