<svg width="16" height="16" viewBox="0 0 16 16" fill="none" xmlns="http://www.w3.org/2000/svg">
<g clip-path="url(#clip0)">
<path d="M9.02357 10.3994C6.92828 10.3994 4.83299 10.3917 2.73802 10.4058C2.29469 10.4086 2.04606 10.1417 2.07106 9.68894C2.0875 9.39117 2.07369 9.09164 2.07467 8.79281C2.07665 8.33227 2.27661 8.11993 2.71138 8.11993C6.09753 8.11957 9.48368 8.11958 12.8701 8.11958C13.6963 8.11958 14.5224 8.12872 15.3483 8.11536C15.7288 8.10938 16.0093 8.32348 15.9827 8.78473C15.9636 9.11168 15.9797 9.44074 15.9784 9.76874C15.9767 10.179 15.7738 10.3987 15.391 10.3987C13.2688 10.3998 11.1462 10.3994 9.02357 10.3994Z" fill="white"/>
<path d="M9.02053 15.4994C6.91997 15.4994 4.81942 15.4994 2.71853 15.4994C2.26172 15.4994 2.07525 15.2987 2.07393 14.8048C2.07327 14.5059 2.07294 14.2071 2.0736 13.9083C2.07459 13.4319 2.26928 13.2221 2.71327 13.2221C5.15849 13.2217 7.60371 13.2217 10.0489 13.2221C11.8213 13.2221 13.5939 13.2196 15.3663 13.2273C15.506 13.228 15.6586 13.2744 15.7816 13.3458C15.9286 13.4312 15.9806 13.5993 15.979 13.7824C15.976 14.1516 15.9793 14.5207 15.9773 14.8898C15.9754 15.2755 15.7672 15.4984 15.4041 15.4991C14.1678 15.5009 12.9316 15.4998 11.6953 15.5002C10.8037 15.4994 9.91212 15.4994 9.02053 15.4994Z" fill="white"/>
<path d="M11.9692 5.30059C10.8425 5.30059 9.71572 5.30094 8.58897 5.30023C8.16768 5.29988 7.96772 5.08438 7.96739 4.63192C7.96706 4.30391 7.96608 3.97591 7.96772 3.6479C7.96969 3.25767 8.18478 3.02142 8.55017 3.02107C10.8418 3.01896 13.1334 3.01896 15.4251 3.02142C15.7773 3.02178 15.9894 3.24783 15.9953 3.62224C16.0009 3.97942 16.0006 4.33696 15.9957 4.69415C15.9904 5.07594 15.7747 5.29988 15.4145 5.30023C14.2664 5.30164 13.1176 5.30059 11.9692 5.30059Z" fill="white"/>
<path d="M2.67595 4.36214C2.72463 4.31363 2.76903 4.27179 2.81112 4.22749C3.92997 3.04907 5.04849 1.87029 6.16734 0.691506C6.40972 0.435922 6.58896 0.434867 6.8274 0.688342C6.98658 0.857442 7.14642 1.02584 7.30263 1.1981C7.497 1.41185 7.49601 1.67025 7.29671 1.88013C5.9289 3.32223 4.56109 4.76398 3.19098 6.20361C2.8792 6.53127 2.40956 6.52142 2.10304 6.19201C1.46206 5.50366 0.820413 4.81601 0.179097 4.12836C-0.0590115 3.87312 -0.0609848 3.67519 0.173178 3.42242C0.334986 3.2477 0.497124 3.07368 0.660577 2.90071C0.869087 2.67958 1.0605 2.67747 1.27295 2.89895C1.70378 3.3486 2.13199 3.8007 2.56183 4.2514C2.59604 4.28761 2.63287 4.32066 2.67595 4.36214Z" fill="white"/>
</g>
<defs>
<clipPath id="clip0">
<rect width="16" height="15" fill="white" transform="translate(0 0.5)"/>
</clipPath>
</defs>
</svg>
