<svg width="20" height="20" viewBox="0 0 20 20" fill="none" xmlns="http://www.w3.org/2000/svg">
<path fill-rule="evenodd" clip-rule="evenodd" d="M13.611 2.29199H6.38685C3.86935 2.29199 2.29102 4.07449 2.29102 6.59699V13.4037C2.29102 15.9262 3.86185 17.7087 6.38685 17.7087H13.6102C16.136 17.7087 17.7077 15.9262 17.7077 13.4037V6.59699C17.7077 4.07449 16.136 2.29199 13.611 2.29199Z" stroke="#848E9C" stroke-width="1.5" stroke-linecap="round" stroke-linejoin="round"/>
<path fill-rule="evenodd" clip-rule="evenodd" d="M8.90698 10.0004C8.90698 10.8529 8.21615 11.5437 7.36365 11.5437C6.51115 11.5437 5.82031 10.8529 5.82031 10.0004C5.82031 9.14786 6.51115 8.45703 7.36365 8.45703H7.36615C8.21698 8.45786 8.90698 9.1487 8.90698 10.0004Z" stroke="#848E9C" stroke-width="1.5" stroke-linecap="round" stroke-linejoin="round"/>
<path d="M8.91016 10H14.1752V11.5433" stroke="#848E9C" stroke-width="1.5" stroke-linecap="round" stroke-linejoin="round"/>
<path d="M11.8171 11.5433V10" stroke="#848E9C" stroke-width="1.5" stroke-linecap="round" stroke-linejoin="round"/>
</svg>
