<svg width="12" height="10" viewBox="0 0 12 10" fill="none" xmlns="http://www.w3.org/2000/svg">
<path fill-rule="evenodd" clip-rule="evenodd" d="M6.55213 1.0885L7.46583 2.91388C7.55538 3.09308 7.72823 3.21734 7.92867 3.24609L9.97267 3.54031C10.4777 3.61322 10.6786 4.22527 10.3132 4.57597L8.83509 5.99622C8.68984 6.13588 8.62372 6.33665 8.65808 6.53382L9.0069 8.53891C9.0928 9.03492 8.56488 9.41334 8.1135 9.17869L6.28661 8.23134C6.10751 8.1384 5.89301 8.1384 5.71339 8.23134L3.8865 9.17869C3.43512 9.41334 2.9072 9.03492 2.99362 8.53891L3.34192 6.53382C3.37628 6.33665 3.31016 6.13588 3.16491 5.99622L1.68684 4.57597C1.32136 4.22527 1.52232 3.61322 2.02733 3.54031L4.07133 3.24609C4.27177 3.21734 4.44514 3.09308 4.53469 2.91388L5.44787 1.0885C5.67383 0.637166 6.32617 0.637166 6.55213 1.0885Z" stroke="white" stroke-linecap="round" stroke-linejoin="round"/>
</svg>
