<svg width="24" height="24" viewBox="0 0 24 24" fill="none" xmlns="http://www.w3.org/2000/svg">
<path d="M12 15.7277C11.4376 15.7277 10.9662 16.1991 10.9662 16.7614C10.9662 17.3238 11.4376 17.7951 12 17.7951C12.5416 17.7951 13.0337 17.3238 13.0089 16.7862C13.0337 16.1949 12.5665 15.7277 12 15.7277Z" fill="#FF7A00"/>
<path d="M21.5679 19.3911C22.2171 18.2706 22.2212 16.935 21.5762 15.8186L15.1009 4.60472C14.46 3.47589 13.3022 2.80603 12.0039 2.80603C10.7055 2.80603 9.54772 3.48002 8.90681 4.60058L2.42327 15.8269C1.77822 16.9557 1.78236 18.2995 2.43567 19.4201C3.08072 20.5282 4.23436 21.194 5.52445 21.194H18.4584C19.7527 21.194 20.9146 20.52 21.5679 19.3911ZM20.162 18.5807C19.8023 19.2009 19.1655 19.569 18.4543 19.569H5.52032C4.81738 19.569 4.18474 19.2092 3.83327 18.6014C3.47767 17.9853 3.47354 17.2493 3.82914 16.629L10.3127 5.40689C10.6641 4.79079 11.2926 4.42691 12.0039 4.42691C12.7109 4.42691 13.3436 4.79492 13.695 5.41102L20.1744 16.6332C20.5218 17.2369 20.5176 17.9646 20.162 18.5807Z" fill="#FF7A00"/>
<path d="M11.7438 8.47041C11.2518 8.61099 10.9458 9.05756 10.9458 9.59924C10.9706 9.92589 10.9913 10.2567 11.0161 10.5833C11.0864 11.828 11.1567 13.0478 11.227 14.2924C11.2518 14.7141 11.5784 15.0201 12.0002 15.0201C12.422 15.0201 12.7528 14.6934 12.7734 14.2675C12.7734 14.0112 12.7734 13.7755 12.7982 13.515C12.8437 12.717 12.8933 11.9189 12.9388 11.1209C12.9636 10.604 13.0091 10.0872 13.0339 9.57029C13.0339 9.38422 13.0091 9.21882 12.9388 9.05343C12.7279 8.59032 12.2359 8.35463 11.7438 8.47041Z" fill="#FF7A00"/>
</svg>
