<svg width="16" height="16" viewBox="0 0 16 16" fill="none" xmlns="http://www.w3.org/2000/svg">
<path d="M9.33325 9.33331V8.83331H8.83325V9.33331H9.33325ZM12.313 13.0202C12.5083 13.2155 12.8249 13.2155 13.0201 13.0202C13.2154 12.8249 13.2154 12.5084 13.0201 12.3131L12.313 13.0202ZM9.83325 13.3333V9.33331H8.83325V13.3333H9.83325ZM9.33325 9.83331H13.3333V8.83331H9.33325V9.83331ZM8.9797 9.68687L12.313 13.0202L13.0201 12.3131L9.68681 8.97976L8.9797 9.68687Z" fill="#828282"/>
<path d="M6.66675 9.33331H7.16675V8.83331H6.66675V9.33331ZM2.97986 12.3131C2.7846 12.5084 2.7846 12.8249 2.97986 13.0202C3.17512 13.2155 3.49171 13.2155 3.68697 13.0202L2.97986 12.3131ZM7.16675 13.3333L7.16675 9.33331H6.16675V13.3333H7.16675ZM6.66675 8.83331H2.66675V9.83331H6.66675V8.83331ZM6.31319 8.97976L2.97986 12.3131L3.68697 13.0202L7.0203 9.68687L6.31319 8.97976Z" fill="#828282"/>
<path d="M9.33325 6.66669L8.83325 6.66669L8.83325 7.16669L9.33325 7.16669L9.33325 6.66669ZM13.0201 3.68691C13.2154 3.49165 13.2154 3.17506 13.0201 2.9798C12.8249 2.78454 12.5083 2.78454 12.313 2.9798L13.0201 3.68691ZM8.83325 2.66669L8.83325 6.66669L9.83325 6.66669L9.83325 2.66669L8.83325 2.66669ZM9.33325 7.16669L13.3333 7.16669L13.3333 6.16669L9.33325 6.16669L9.33325 7.16669ZM9.6868 7.02024L13.0201 3.68691L12.313 2.9798L8.9797 6.31313L9.6868 7.02024Z" fill="#828282"/>
<path d="M6.66675 6.66669L6.66675 7.16669L7.16675 7.16669L7.16675 6.66669L6.66675 6.66669ZM3.68697 2.9798C3.49171 2.78454 3.17512 2.78454 2.97986 2.9798C2.7846 3.17506 2.7846 3.49164 2.97986 3.68691L3.68697 2.9798ZM6.16675 2.66669L6.16675 6.66669L7.16675 6.66669L7.16675 2.66669L6.16675 2.66669ZM6.66675 6.16669L2.66675 6.16669L2.66675 7.16669L6.66675 7.16669L6.66675 6.16669ZM7.0203 6.31313L3.68697 2.9798L2.97986 3.68691L6.31319 7.02024L7.0203 6.31313Z" fill="#828282"/>
</svg>
